<svg data-v-0dd9719b="" version="1.0" xmlns="http://www.w3.org/2000/svg" xmlns:xlink="http://www.w3.org/1999/xlink" width="100%" height="100%" viewBox="0 0 340.000000 250.000000" preserveAspectRatio="xMidYMid meet" color-interpolation-filters="sRGB" style="margin: auto;"> <rect data-v-0dd9719b="" x="0" y="0" width="100%" height="100%" fill="#fff" fill-opacity="1" class="background"></rect> <rect data-v-0dd9719b="" x="0" y="0" width="100%" height="100%" fill="url(#watermark)" fill-opacity="1" class="watermarklayer"></rect> <g data-v-0dd9719b="" fill="#0b56a6" class="icon-text-wrapper icon-svg-group iconsvg" transform="translate(47.03242492675781,98.21213340759277)"><g class="iconsvg-imagesvg" transform="translate(0,0)"><g><rect fill="#0b56a6" fill-opacity="0" stroke-width="2" x="0" y="0" width="60" height="53.57573376432035" class="image-rect"></rect> <svg x="0" y="0" width="60" height="53.57573376432035" filtersec="colorsb415545064" class="image-svg-svg primary" style="overflow: visible;"><svg xmlns="http://www.w3.org/2000/svg" viewBox="0 -0.011434555053710938 424.6799621582031 379.20831298828125"><path d="M212.33 145.28a44.31 44.31 0 1 1-44.29 44.33 44.32 44.32 0 0 1 44.29-44.33z" fill="#da251d" fill-rule="evenodd"></path><path d="M307.2 25.47l-.05-.05c-14-8.06-37.41 1.17-64 22.66-29.28 23.64-60.88 61.71-87.94 108.54l-.07.14c-27 46.79-44.1 93.16-49.95 130.28-5.32 33.74-1.6 58.65 12.38 66.73 14 8.07 37.4-1.18 64-22.67 29.25-23.64 60.89-61.71 87.93-108.54 27-46.84 44.17-93.23 50-130.42 5.32-33.7 1.66-58.58-12.28-66.67zm-78.27 4.88c32.56-26.34 63.78-37 86.55-26.17h.27l2.72 1.56c23 13.28 30.27 46.66 23.47 89.87-6.14 39.06-23.69 87.23-51.25 135.57v.07l-1.57 2.72c-28.43 49.23-62 89.53-93.35 114.85-34 27.51-66.57 37.9-89.56 24.64-23-13.27-30.25-46.66-23.42-89.87 6.26-39.82 24.36-89 52.8-138.31v-.05c28.42-49.26 62-89.52 93.34-114.88z" fill="#0b56a6" fill-rule="evenodd"></path><path d="M401.86 189.61c0-16.17-19.69-31.82-51.49-44.08-35.08-13.48-83.86-21.85-138-21.85s-102.95 8.37-138 21.85c-31.88 12.26-51.58 27.91-51.58 44.08s19.68 31.81 51.5 44c35.07 13.5 83.85 21.85 138 21.85s103-8.35 138-21.85c31.8-12.23 51.49-27.89 51.49-44zm-43.39-65.28c40.91 15.76 66.21 38.72 66.21 65.28s-25.3 49.5-66.21 65.24c-37.65 14.49-89.34 23.45-146.14 23.45s-108.48-9-146.12-23.45C25.3 239.11 0 216.12 0 189.61s25.3-49.52 66.21-65.28c37.64-14.47 89.33-23.45 146.12-23.45s108.46 8.98 146.14 23.45z" fill="#0b56a6" fill-rule="evenodd"></path><path d="M307.1 353.77c14-8.08 17.7-33 12.38-66.73-5.84-37.12-23-83.49-49.93-130.28l-.09-.14c-27.05-46.83-58.66-84.87-87.91-108.54-26.57-21.47-50-30.72-64-22.66l-.82.49c-13.32 8.52-16.79 33.14-11.56 66.23 5.85 37.19 23 83.58 50 130.42 27 46.83 58.68 84.9 88 108.54 26.54 21.49 50 30.74 63.92 22.67zm34.84-70.18c6.8 43.21-.46 76.6-23.42 89.87s-55.58 2.89-89.61-24.64c-31.32-25.32-64.92-65.62-93.36-114.85l-1.57-2.72v-.07c-27.53-48.34-45.09-96.47-51.19-135.57-6.83-43.19.47-76.57 23.44-89.85.38-.22.77-.42 1.16-.63l1.59-.93h.24c22.78-10.8 54-.17 86.58 26.17 31.32 25.32 65 65.62 93.38 114.86v.05c28.39 49.29 46.5 98.49 52.76 138.31z" fill="#0b56a6" fill-rule="evenodd"></path></svg></svg> <!----></g></g> <g transform="translate(67,16.608838081359863)"><g data-gra="path-name" fill-rule="" class="tp-name iconsvg-namesvg"><g transform="scale(1)"><g><path d="M9.08-19.97L9.08-19.97Q10.01-20.75 10.88-19.91L10.88-19.91Q11.12-19.71 11.29-19.33L11.29-19.33Q15.3-10.33 19.33-1.34L19.33-1.34Q19.59-0.81 19.56-0.61L19.56-0.61Q19.5-0.15 19.07-0.09L19.07-0.09Q18.2 0.17 17.91-0.84L17.91-0.84 16.05-5.02Q15.73-5.72 15.03-5.72L15.03-5.72 4.56-5.72Q3.86-5.72 3.51-5.02L3.51-5.02Q2.41-2.76 1.36-0.49L1.36-0.49Q0.9 0.23 0.29-0.23L0.29-0.23Q0.06-0.44 0.15-0.81L0.15-0.81Q0.44-1.57 1.19-3.13L1.19-3.13Q4.9-11.26 8.71-19.39L8.71-19.39Q8.88-19.74 9.08-19.97ZM15-7.6L10.33-18.2Q10.1-18.84 9.58-18.46L9.58-18.46Q9.4-18.28 9.23-17.88L9.23-17.88Q6.85-12.74 4.53-7.57L4.53-7.57Q4.24-6.88 4.93-6.88L4.93-6.88 14.63-6.88Q15.32-6.88 15-7.6L15-7.6ZM22.78-19.1L22.78-19.1Q25.05-20.23 27.43-20.37L27.43-20.37 29.43-20.37Q32.24-20.14 34.07-19.04L34.07-19.04Q36.02-17.65 36.31-15.79L36.31-15.79Q36.51-15.15 36.13-14.63L36.13-14.63Q35.76-14.31 35.26-14.74L35.26-14.74Q35.18-14.86 35.15-15.03L35.15-15.03Q34.89-16.4 34.04-17.36L34.04-17.36Q33.7-17.82 33.09-18.17L33.09-18.17Q31.49-19.16 29.46-19.24L29.46-19.24 27.83-19.24Q26.67-19.21 25.48-18.95L25.48-18.95Q24.03-18.69 23.16-18.02L23.16-18.02Q21.71-16.66 21.91-15.06L21.91-15.06Q22.12-13.09 24.41-12.22L24.41-12.22Q25.1-12.04 26.73-11.78L26.73-11.78Q29.05-11.38 31.37-10.94L31.37-10.94Q33.2-10.59 34.86-9.61L34.86-9.61Q36.77-8.39 36.92-6.36L36.92-6.36Q37.06-5.28 36.63-4.03L36.63-4.03Q36.25-2.82 35.18-1.83L35.18-1.83Q33.03-0.12 30.59-0.12L30.59-0.12 28.38-0.12Q27.11-0.15 25.95-0.35L25.95-0.35Q24.9-0.55 23.62-1.16L23.62-1.16Q20.9-2.79 20.17-5.4L20.17-5.4Q19.85-6.36 19.97-6.97L19.97-6.97Q20.23-7.43 20.64-7.43L20.64-7.43Q20.9-7.46 21.13-7.05L21.13-7.05 21.39-5.89Q21.8-3.98 23.77-2.58L23.77-2.58Q24.93-1.83 26.09-1.6L26.09-1.6Q28.47-1.1 31.61-1.54L31.61-1.54Q32.74-1.65 33.93-2.41L33.93-2.41Q34.65-2.96 35.03-3.6L35.03-3.6Q35.73-4.9 35.64-6.39L35.64-6.39Q35.47-7.69 34.16-8.56L34.16-8.56Q32.42-9.84 29.52-10.13L29.52-10.13Q26.03-10.71 23.71-11.26L23.71-11.26Q22.43-11.55 21.42-12.71L21.42-12.71Q20.29-14.51 21.04-16.95L21.04-16.95Q21.48-18.26 22.78-19.1ZM37.99-20.29L37.99-20.29Q38.08-20.32 38.95-20.32L38.95-20.32 52.3-20.32Q53.17-20.4 53.52-20.17L53.52-20.17Q53.84-19.88 53.58-19.39L53.58-19.39Q53.46-19.24 53.2-19.18L53.2-19.18 46.73-19.18Q46-19.18 46-18.49L46-18.49 46-1.42Q46-0.55 45.94-0.41L45.94-0.41Q45.57 0.17 44.99-0.23L44.99-0.23Q44.72-0.52 44.81-1.39L44.81-1.39 44.81-18.49Q44.81-19.18 44.11-19.18L44.11-19.18 38.19-19.18Q37.7-19.27 37.64-19.74L37.64-19.74Q37.7-20.11 37.99-20.29ZM56.07-20.32L56.07-20.32 67.68-20.32Q69.77-20.11 71.08-18.49L71.08-18.49Q71.83-17.36 71.83-16.17L71.83-16.17Q72.01-14.42 71.45-13.06L71.45-13.06Q70.67-11.32 68.87-10.8L68.87-10.8Q68.15-10.71 68.87-10.33L68.87-10.33Q69.6-9.84 69.83-9.35L69.83-9.35Q70.47-8.13 70.5-7.02L70.5-7.02Q70.64-4.5 71.34-2.38L71.34-2.38Q71.57-1.65 71.92-1.22L71.92-1.22Q72.56-0.32 71.45-0.12L71.45-0.12Q71.14-0.06 70.9-0.35L70.9-0.35Q69.34-2.79 69.16-6.09L69.16-6.09Q69.19-6.73 69.05-7.43L69.05-7.43Q68.78-8.97 67.25-9.98L67.25-9.98Q67.01-10.13 66.32-10.13L66.32-10.13 56.91-10.13Q56.19-10.13 56.19-9.43L56.19-9.43 56.19-1.34Q56.19-0.46 56.16-0.38L56.16-0.38Q56.04-0.15 55.69-0.09L55.69-0.09Q55.38-0.03 55.14-0.29L55.14-0.29Q55.03-0.49 55.03-1.36L55.03-1.36 55.03-19.18Q55.09-20.08 56.07-20.32ZM67.07-19.18L56.8-19.18Q56.39-19.13 56.25-18.81L56.25-18.81Q56.19-18.69 56.19-18.02L56.19-18.02 56.19-12.02Q56.19-11.29 56.88-11.29L56.88-11.29 66.78-11.29Q67.83-11.41 69.1-12.45L69.1-12.45Q69.74-12.92 70.03-13.55L70.03-13.55Q70.9-15.53 70.24-17.04L70.24-17.04Q69.48-18.6 68.29-18.89L68.29-18.89Q67.71-19.1 67.07-19.18L67.07-19.18ZM81.26-19.97L81.26-19.97Q82.19-20.75 83.06-19.91L83.06-19.91Q83.3-19.71 83.47-19.33L83.47-19.33Q87.48-10.33 91.51-1.34L91.51-1.34Q91.77-0.81 91.74-0.61L91.74-0.61Q91.68-0.15 91.25-0.09L91.25-0.09Q90.38 0.17 90.09-0.84L90.09-0.84 88.23-5.02Q87.91-5.72 87.21-5.72L87.21-5.72 76.74-5.72Q76.04-5.72 75.69-5.02L75.69-5.02Q74.59-2.76 73.54-0.49L73.54-0.49Q73.08 0.23 72.47-0.23L72.47-0.23Q72.24-0.44 72.33-0.81L72.33-0.81Q72.62-1.57 73.37-3.13L73.37-3.13Q77.08-11.26 80.89-19.39L80.89-19.39Q81.06-19.74 81.26-19.97ZM87.18-7.6L82.51-18.2Q82.28-18.84 81.76-18.46L81.76-18.46Q81.58-18.28 81.41-17.88L81.41-17.88Q79.03-12.74 76.71-7.57L76.71-7.57Q76.42-6.88 77.11-6.88L77.11-6.88 86.81-6.88Q87.5-6.88 87.18-7.6L87.18-7.6ZM92.96-20.37L92.96-20.37Q93.51-20.49 93.77-20.03L93.77-20.03Q93.8-19.91 93.8-19.07L93.8-19.07 93.8-2.47Q93.92-1.48 94.9-1.22L94.9-1.22 106.63-1.22Q107.04-1.31 107.12-0.75L107.12-0.75Q107.21-0.38 106.83-0.12L106.83-0.12Q106.72-0.06 105.85-0.06L105.85-0.06 94.35-0.06Q92.99-0.12 92.64-1.65L92.64-1.65 92.64-19.01Q92.5-19.94 92.96-20.37ZM115.77-20.17L115.77-20.17Q118.18-20.72 121.17-19.65L121.17-19.65Q123.7-18.72 125.26-16.11L125.26-16.11Q127.61-11.29 126.13-6.41L126.13-6.41Q125.2-2.79 121.9-1.04L121.9-1.04Q120.42-0.35 118.41-0.12L118.41-0.12Q116.09 0.12 113.57-0.93L113.57-0.93Q111.01-1.94 109.59-4.76L109.59-4.76Q108.02-8.39 108.57-12.1L108.57-12.1Q108.78-14.45 110.17-16.75L110.17-16.75Q110.87-17.88 112.29-18.86L112.29-18.86Q113.89-19.88 115.77-20.17ZM121.63-18.14L121.63-18.14Q118.01-19.97 114.52-18.63L114.52-18.63Q112.03-17.79 110.61-15L110.61-15Q109.74-13 109.62-10.51L109.62-10.51Q109.62-7.02 111.19-4.41L111.19-4.41Q112-3.22 113.33-2.35L113.33-2.35Q116.82-0.49 120.36-1.74L120.36-1.74Q121.72-2.21 122.68-3.02L122.68-3.02Q124.25-4.38 124.89-6.47L124.89-6.47Q125.7-9.23 125.44-11.35L125.44-11.35Q125.23-13.96 123.93-15.99L123.93-15.99Q122.91-17.5 121.63-18.14ZM133.48-19.85L133.48-19.85Q137.42-21.07 140.96-19.36L140.96-19.36Q144.45-17.41 145.4-14.13L145.4-14.13Q145.43-13.26 144.5-13.35L144.5-13.35Q144.07-13.55 143.98-13.93L143.98-13.93Q143.37-15.35 142.71-16.25L142.71-16.25Q141.86-17.36 140.47-18.28L140.47-18.28Q137.57-19.74 134.35-18.75L134.35-18.75Q131.53-17.59 129.94-15.15L129.94-15.15Q127.32-9.46 130.34-4.53L130.34-4.53Q131.27-3.22 132.49-2.55L132.49-2.55Q136.15-0.41 140.35-1.74L140.35-1.74Q141.75-2.18 142.62-3.31L142.62-3.31Q143.98-4.96 144.13-7.05L144.13-7.05 144.13-8.71Q144.01-9.37 143.4-9.43L143.4-9.43 137.92-9.43Q137.05-9.43 136.9-9.49L136.9-9.49Q136.47-9.81 136.64-10.25L136.64-10.25Q136.78-10.54 137.1-10.59L137.1-10.59 144.56-10.59Q145.14-10.56 145.4-9.95L145.4-9.95Q145.46-9.81 145.46-8.94L145.46-8.94Q145.46-6.65 145.26-5.83L145.26-5.83Q144.53-2.93 142.24-1.28L142.24-1.28Q139.63 0.15 136.49-0.12L136.49-0.12Q133.74-0.26 131.27-1.74L131.27-1.74Q130.05-2.44 129.01-3.98L129.01-3.98Q127.85-5.95 127.44-8.62L127.44-8.62Q127.09-11.9 128.37-15.03L128.37-15.03Q128.89-16.14 129.94-17.36L129.94-17.36Q131.56-19.3 133.48-19.85ZM161.31-20.37L161.31-20.37Q162.03-20.46 161.98-19.59L161.98-19.59 161.98-7.28Q161.95-6.15 161.63-4.96L161.63-4.96Q161.11-2.44 158.17-0.93L158.17-0.93Q156.17 0.06 154.2-0.06L154.2-0.06Q151.56-0.2 149.55-1.83L149.55-1.83Q146.77-4.09 146.62-7.4L146.62-7.4 146.62-18.89Q146.62-19.76 146.71-20.03L146.71-20.03Q146.86-20.32 147.2-20.37L147.2-20.37Q147.81-20.29 147.78-19.74L147.78-19.74 147.78-7.78Q147.9-6.56 148.37-5.46L148.37-5.46Q149.21-3.45 151.24-2.26L151.24-2.26Q153.94-0.99 156.17-1.57L156.17-1.57Q158.32-2 159.68-3.92L159.68-3.92Q160.7-5.51 160.82-7.37L160.82-7.37 160.82-18.86Q160.82-19.74 160.93-20.03L160.93-20.03Q161.05-20.32 161.31-20.37ZM165.89-20.32L165.89-20.32 177.77-20.32Q178.64-20.32 178.72-20.29L178.72-20.29Q179.19-20.03 179.01-19.53L179.01-19.53Q178.98-19.45 178.84-19.3L178.84-19.3Q178.58-19.18 177.71-19.18L177.71-19.18 166.88-19.18Q166.19-19.18 165.89-19.07L165.89-19.07Q165.34-18.78 165.2-17.76L165.2-17.76 165.2-12.02Q165.2-11.29 165.89-11.29L165.89-11.29 177.18-11.29Q178.06-11.29 178.2-11.23L178.2-11.23Q179.01-10.77 178.2-10.19L178.2-10.19Q178.06-10.13 177.24-10.13L177.24-10.13 165.92-10.13Q165.2-10.13 165.2-9.43L165.2-9.43 165.2-2.18Q165.37-1.34 166.13-1.22L166.13-1.22 177.71-1.22Q178.58-1.22 178.64-1.19L178.64-1.19Q179.07-0.93 178.96-0.41L178.96-0.41Q178.81-0.15 178.64-0.12L178.64-0.12Q178.52-0.06 177.65-0.06L177.65-0.06 165.46-0.06Q164.27-0.15 164.04-1.42L164.04-1.42 164.04-18.43Q164.07-20 165.89-20.32Z" transform="translate(-0.12468750774860382, 20.39482879638672)"></path></g> <!----> <!----> <!----> <!----> <!----> <!----> <!----></g></g> <!----></g></g><defs v-gra="od"></defs></svg>